<svg width="18" height="14" viewBox="0 0 18 14" fill="none" xmlns="http://www.w3.org/2000/svg">
<path d="M14.25 0.25H3.75C2.7558 0.251191 1.80267 0.646661 1.09966 1.34966C0.396661 2.05267 0.00119089 3.0058 0 4L0 9.99999C0.00119089 10.9942 0.396661 11.9473 1.09966 12.6503C1.80267 13.3533 2.7558 13.7488 3.75 13.75H14.25C15.2442 13.7488 16.1973 13.3533 16.9003 12.6503C17.6033 11.9473 17.9988 10.9942 18 9.99999V4C17.9988 3.0058 17.6033 2.05267 16.9003 1.34966C16.1973 0.646661 15.2442 0.251191 14.25 0.25ZM3.75 1.75H14.25C14.8467 1.75 15.419 1.98705 15.841 2.40901C16.2629 2.83096 16.5 3.40326 16.5 4H1.5C1.5 3.40326 1.73705 2.83096 2.15901 2.40901C2.58097 1.98705 3.15326 1.75 3.75 1.75ZM14.25 12.25H3.75C3.15326 12.25 2.58097 12.0129 2.15901 11.591C1.73705 11.169 1.5 10.5967 1.5 9.99999V5.5H16.5V9.99999C16.5 10.5967 16.2629 11.169 15.841 11.591C15.419 12.0129 14.8467 12.25 14.25 12.25Z" fill="#2DBC77"/>
</svg>
